# Blender v2.76 (sub 0) OBJ File: ''
# www.blender.org
o Cube
v 1.000000 -0.858579 -0.858579
v 0.858579 -1.000000 -0.858579
v 0.858579 -0.858579 -1.000000
v 0.989235 -0.912698 -0.858579
v 0.958579 -0.958579 -0.858579
v 0.989235 -0.858579 -0.912698
v 0.976243 -0.914055 -0.914055
v 0.951387 -0.951387 -0.911240
v 0.940228 -0.940228 -0.940228
v 0.858579 -0.989235 -0.912698
v 0.858579 -0.958579 -0.958579
v 0.912698 -0.989235 -0.858579
v 0.914054 -0.976243 -0.914055
v 0.911240 -0.951387 -0.951387
v 0.912698 -0.858579 -0.989235
v 0.958579 -0.858579 -0.958579
v 0.858579 -0.912698 -0.989235
v 0.914054 -0.914055 -0.976243
v 0.951387 -0.911240 -0.951387
v 1.000000 -0.858579 0.858579
v 0.858579 -0.858579 1.000000
v 0.858579 -1.000000 0.858579
v 0.989235 -0.858579 0.912698
v 0.958578 -0.858579 0.958579
v 0.989235 -0.912698 0.858579
v 0.976243 -0.914055 0.914055
v 0.951387 -0.911240 0.951387
v 0.940228 -0.940228 0.940228
v 0.858578 -0.912698 0.989235
v 0.858579 -0.958579 0.958579
v 0.912698 -0.858579 0.989235
v 0.914054 -0.914055 0.976243
v 0.911240 -0.951387 0.951387
v 0.912698 -0.989235 0.858579
v 0.958579 -0.958579 0.858579
v 0.858579 -0.989235 0.912698
v 0.914054 -0.976243 0.914055
v 0.951387 -0.951387 0.911240
v -0.858579 -0.858579 1.000000
v -1.000000 -0.858579 0.858578
v -0.858579 -1.000000 0.858578
v -0.912698 -0.858579 0.989235
v -0.958579 -0.858579 0.958578
v -0.858579 -0.912698 0.989235
v -0.914055 -0.914055 0.976243
v -0.951387 -0.911240 0.951387
v -0.940228 -0.940228 0.940228
v -0.989235 -0.912698 0.858578
v -0.958579 -0.958579 0.858578
v -0.989235 -0.858579 0.912698
v -0.976243 -0.914055 0.914054
v -0.951387 -0.951387 0.911240
v -0.858579 -0.989235 0.912698
v -0.858579 -0.958579 0.958578
v -0.912698 -0.989235 0.858578
v -0.914055 -0.976243 0.914054
v -0.911240 -0.951387 0.951387
v -0.858578 -0.858579 -1.000000
v -0.858578 -1.000000 -0.858579
v -1.000000 -0.858579 -0.858579
v -0.858578 -0.912698 -0.989235
v -0.858578 -0.958579 -0.958579
v -0.912698 -0.858579 -0.989235
v -0.914054 -0.914055 -0.976243
v -0.911240 -0.951387 -0.951387
v -0.940228 -0.940228 -0.940229
v -0.912698 -0.989235 -0.858579
v -0.958578 -0.958579 -0.858579
v -0.858578 -0.989235 -0.912699
v -0.914054 -0.976243 -0.914055
v -0.951387 -0.951387 -0.911240
v -0.989235 -0.858579 -0.912699
v -0.958578 -0.858579 -0.958579
v -0.989235 -0.912698 -0.858579
v -0.976242 -0.914055 -0.914055
v -0.951387 -0.911240 -0.951387
v 0.858579 0.858579 -1.000000
v 0.858579 1.000000 -0.858578
v 1.000000 0.858579 -0.858578
v 0.858579 0.912698 -0.989235
v 0.858579 0.958579 -0.958578
v 0.912699 0.858579 -0.989235
v 0.914055 0.914055 -0.976242
v 0.911240 0.951387 -0.951387
v 0.940229 0.940228 -0.940228
v 0.912699 0.989235 -0.858578
v 0.958579 0.958579 -0.858578
v 0.858579 0.989235 -0.912698
v 0.914055 0.976243 -0.914054
v 0.951387 0.951387 -0.911239
v 0.989235 0.858579 -0.912698
v 0.958579 0.858579 -0.958578
v 0.989235 0.912698 -0.858578
v 0.976243 0.914055 -0.914054
v 0.951387 0.911240 -0.951387
v 0.858578 0.858579 1.000000
v 0.999999 0.858579 0.858579
v 0.858578 1.000000 0.858579
v 0.912698 0.858579 0.989235
v 0.958578 0.858579 0.958579
v 0.858578 0.912698 0.989235
v 0.914054 0.914055 0.976243
v 0.951386 0.911240 0.951388
v 0.940228 0.940228 0.940229
v 0.989234 0.912698 0.858579
v 0.958578 0.958579 0.858579
v 0.989234 0.858579 0.912699
v 0.976242 0.914055 0.914055
v 0.951386 0.951387 0.911240
v 0.858578 0.989235 0.912699
v 0.858578 0.958579 0.958579
v 0.912698 0.989235 0.858579
v 0.914054 0.976243 0.914055
v 0.911239 0.951387 0.951388
v -1.000000 0.858579 0.858578
v -0.858579 0.858579 1.000000
v -0.858579 1.000000 0.858578
v -0.989235 0.858579 0.912698
v -0.958579 0.858579 0.958578
v -0.989235 0.912698 0.858578
v -0.976243 0.914055 0.914054
v -0.951387 0.911240 0.951387
v -0.940229 0.940228 0.940228
v -0.858579 0.912698 0.989235
v -0.858579 0.958579 0.958578
v -0.912699 0.858579 0.989235
v -0.914055 0.914055 0.976242
v -0.911240 0.951387 0.951387
v -0.912699 0.989235 0.858578
v -0.958579 0.958579 0.858578
v -0.858579 0.989235 0.912698
v -0.914055 0.976243 0.914054
v -0.951387 0.951387 0.911240
v -1.000000 0.858579 -0.858579
v -0.858579 1.000000 -0.858579
v -0.858579 0.858579 -1.000000
v -0.989235 0.912698 -0.858579
v -0.958578 0.958579 -0.858579
v -0.989235 0.858579 -0.912698
v -0.976243 0.914055 -0.914055
v -0.951387 0.951387 -0.911240
v -0.940228 0.940228 -0.940228
v -0.858578 0.989235 -0.912698
v -0.858578 0.958579 -0.958579
v -0.912698 0.989235 -0.858579
v -0.914054 0.976243 -0.914055
v -0.911240 0.951387 -0.951387
v -0.912698 0.858579 -0.989235
v -0.958578 0.858579 -0.958579
v -0.858578 0.912698 -0.989235
v -0.914054 0.914055 -0.976243
v -0.951387 0.911240 -0.951387
vn 0.000000 0.000000 -1.000000
vn -0.000000 -0.000000 1.000000
vn -1.000000 -0.000000 -0.000000
vn 0.000000 1.000000 0.000000
vn 1.000000 0.000000 0.000000
vn 0.957100 -0.204900 -0.204900
vn 0.815200 -0.550000 -0.181800
vn 0.815200 -0.181800 -0.550000
vn 0.716700 -0.493100 -0.493100
vn 0.204900 -0.957100 -0.204900
vn 0.181800 -0.815200 -0.550000
vn 0.550000 -0.815200 -0.181800
vn 0.493100 -0.716700 -0.493100
vn 0.204900 -0.204900 -0.957100
vn 0.550000 -0.181800 -0.815200
vn 0.181800 -0.550000 -0.815200
vn 0.493100 -0.493100 -0.716700
vn 0.957100 -0.204900 0.204900
vn 0.815200 -0.181800 0.550000
vn 0.815200 -0.550000 0.181800
vn 0.716700 -0.493100 0.493100
vn 0.204900 -0.204900 0.957100
vn 0.181800 -0.550000 0.815200
vn 0.550000 -0.181800 0.815200
vn 0.493100 -0.493100 0.716700
vn 0.204900 -0.957100 0.204900
vn 0.550000 -0.815200 0.181800
vn 0.181800 -0.815200 0.550000
vn 0.493100 -0.716700 0.493100
vn -0.204900 -0.204900 0.957100
vn -0.550000 -0.181800 0.815200
vn -0.181800 -0.550000 0.815200
vn -0.493100 -0.493100 0.716700
vn -0.957100 -0.204900 0.204900
vn -0.815200 -0.550000 0.181800
vn -0.815200 -0.181800 0.550000
vn -0.716700 -0.493100 0.493100
vn -0.204900 -0.957100 0.204900
vn -0.181800 -0.815200 0.550000
vn -0.550000 -0.815200 0.181800
vn -0.493100 -0.716700 0.493100
vn -0.204900 -0.204900 -0.957100
vn -0.181800 -0.550000 -0.815200
vn -0.550000 -0.181800 -0.815200
vn -0.493100 -0.493100 -0.716700
vn -0.204900 -0.957100 -0.204900
vn -0.550000 -0.815200 -0.181800
vn -0.181800 -0.815200 -0.550000
vn -0.493100 -0.716700 -0.493100
vn -0.957100 -0.204900 -0.204900
vn -0.815200 -0.181800 -0.550000
vn -0.815200 -0.550000 -0.181800
vn -0.716700 -0.493100 -0.493100
vn 0.204900 0.204900 -0.957100
vn 0.181800 0.550000 -0.815200
vn 0.550000 0.181800 -0.815200
vn 0.493100 0.493100 -0.716700
vn 0.204900 0.957100 -0.204900
vn 0.550000 0.815200 -0.181800
vn 0.181800 0.815200 -0.550000
vn 0.493100 0.716700 -0.493100
vn 0.957100 0.204900 -0.204900
vn 0.815200 0.181800 -0.550000
vn 0.815200 0.550000 -0.181800
vn 0.716700 0.493100 -0.493100
vn 0.204900 0.204900 0.957100
vn 0.550000 0.181800 0.815200
vn 0.181800 0.550000 0.815200
vn 0.493100 0.493100 0.716700
vn 0.957100 0.204900 0.204900
vn 0.815200 0.550000 0.181800
vn 0.815200 0.181800 0.550000
vn 0.716700 0.493100 0.493100
vn 0.204900 0.957100 0.204900
vn 0.181800 0.815200 0.550000
vn 0.550000 0.815200 0.181800
vn 0.493100 0.716700 0.493100
vn -0.957100 0.204900 0.204900
vn -0.815200 0.181800 0.550000
vn -0.815200 0.550000 0.181800
vn -0.716700 0.493100 0.493100
vn -0.204900 0.204900 0.957100
vn -0.181800 0.550000 0.815200
vn -0.550000 0.181800 0.815200
vn -0.493100 0.493100 0.716700
vn -0.204900 0.957100 0.204900
vn -0.550000 0.815200 0.181800
vn -0.181800 0.815200 0.550000
vn -0.493100 0.716700 0.493100
vn -0.957100 0.204900 -0.204900
vn -0.815200 0.550000 -0.181800
vn -0.815200 0.181800 -0.550000
vn -0.716700 0.493100 -0.493100
vn -0.204900 0.957100 -0.204900
vn -0.181800 0.815200 -0.550000
vn -0.550000 0.815200 -0.181800
vn -0.493100 0.716700 -0.493100
vn -0.204900 0.204900 -0.957100
vn -0.550000 0.181800 -0.815200
vn -0.181800 0.550000 -0.815200
vn -0.493100 0.493100 -0.716700
vn 0.980800 -0.195100 0.000000
vn 0.831500 -0.555600 0.000000
vn 0.555600 -0.831500 0.000000
vn 0.195100 -0.980800 0.000000
vn 0.000000 -0.980800 -0.195100
vn 0.000000 -0.831500 -0.555600
vn 0.000000 -0.555600 -0.831500
vn 0.000000 -0.195100 -0.980800
vn 0.195100 0.000000 -0.980800
vn 0.555600 0.000000 -0.831500
vn 0.831500 -0.000000 -0.555600
vn 0.980800 -0.000000 -0.195100
vn -0.000000 -0.195100 0.980800
vn -0.000000 -0.555600 0.831500
vn -0.000000 -0.831500 0.555600
vn -0.000000 -0.980800 0.195100
vn 0.980800 0.000000 0.195100
vn 0.831500 0.000000 0.555600
vn 0.555600 -0.000000 0.831500
vn 0.195100 -0.000000 0.980800
vn -0.980800 -0.195100 -0.000000
vn -0.831500 -0.555600 -0.000000
vn -0.555600 -0.831500 -0.000000
vn -0.195100 -0.980800 -0.000000
vn -0.195100 -0.000000 0.980800
vn -0.555600 -0.000000 0.831500
vn -0.831500 -0.000000 0.555600
vn -0.980800 -0.000000 0.195100
vn -0.980800 -0.000000 -0.195100
vn -0.831500 0.000000 -0.555600
vn -0.555600 0.000000 -0.831500
vn -0.195100 0.000000 -0.980800
vn 0.195100 0.980800 0.000000
vn 0.555600 0.831500 0.000000
vn 0.831500 0.555600 0.000000
vn 0.980800 0.195100 0.000000
vn 0.000000 0.195100 -0.980800
vn 0.000000 0.555600 -0.831500
vn 0.000000 0.831500 -0.555600
vn 0.000000 0.980800 -0.195100
vn -0.000000 0.980800 0.195100
vn -0.000000 0.831500 0.555600
vn -0.000000 0.555600 0.831500
vn -0.000000 0.195100 0.980800
vn -0.195100 0.980800 -0.000000
vn -0.555600 0.831500 -0.000000
vn -0.831500 0.555600 -0.000000
vn -0.980800 0.195100 -0.000000
vn 0.000000 -1.000000 -0.000000
s off
f 77//1 3//1 58//1 136//1
f 21//2 96//2 116//2 39//2
f 40//3 115//3 134//3 60//3
f 78//4 135//4 117//4 98//4
f 1//5 79//5 97//5 20//5
f 1//6 4//6 7//6 6//6
f 4//7 5//7 8//7 7//7
f 6//8 7//8 19//8 16//8
f 7//9 8//9 9//9 19//9
f 2//10 10//10 13//10 12//10
f 10//11 11//11 14//11 13//11
f 12//12 13//12 8//12 5//12
f 13//13 14//13 9//13 8//13
f 3//14 15//14 18//14 17//14
f 15//15 16//15 19//15 18//15
f 17//16 18//16 14//16 11//16
f 18//17 19//17 9//17 14//17
f 20//18 23//18 26//18 25//18
f 23//19 24//19 27//19 26//19
f 25//20 26//20 38//20 35//20
f 26//21 27//21 28//21 38//21
f 21//22 29//22 32//22 31//22
f 29//23 30//23 33//23 32//23
f 31//24 32//24 27//24 24//24
f 32//25 33//25 28//25 27//25
f 22//26 34//26 37//26 36//26
f 34//27 35//27 38//27 37//27
f 36//28 37//28 33//28 30//28
f 37//29 38//29 28//29 33//29
f 39//30 42//30 45//30 44//30
f 42//31 43//31 46//31 45//31
f 44//32 45//32 57//32 54//32
f 45//33 46//33 47//33 57//33
f 40//34 48//34 51//34 50//34
f 48//35 49//35 52//35 51//35
f 50//36 51//36 46//36 43//36
f 51//37 52//37 47//37 46//37
f 41//38 53//38 56//38 55//38
f 53//39 54//39 57//39 56//39
f 55//40 56//40 52//40 49//40
f 56//41 57//41 47//41 52//41
f 58//42 61//42 64//42 63//42
f 61//43 62//43 65//43 64//43
f 63//44 64//44 76//44 73//44
f 64//45 65//45 66//45 76//45
f 59//46 67//46 70//46 69//46
f 67//47 68//47 71//47 70//47
f 69//48 70//48 65//48 62//48
f 70//49 71//49 66//49 65//49
f 60//50 72//50 75//50 74//50
f 72//51 73//51 76//51 75//51
f 74//52 75//52 71//52 68//52
f 75//53 76//53 66//53 71//53
f 77//54 80//54 83//54 82//54
f 80//55 81//55 84//55 83//55
f 82//56 83//56 95//56 92//56
f 83//57 84//57 85//57 95//57
f 78//58 86//58 89//58 88//58
f 86//59 87//59 90//59 89//59
f 88//60 89//60 84//60 81//60
f 89//61 90//61 85//61 84//61
f 79//62 91//62 94//62 93//62
f 91//63 92//63 95//63 94//63
f 93//64 94//64 90//64 87//64
f 94//65 95//65 85//65 90//65
f 96//66 99//66 102//66 101//66
f 99//67 100//67 103//67 102//67
f 101//68 102//68 114//68 111//68
f 102//69 103//69 104//69 114//69
f 97//70 105//70 108//70 107//70
f 105//71 106//71 109//71 108//71
f 107//72 108//72 103//72 100//72
f 108//73 109//73 104//73 103//73
f 98//74 110//74 113//74 112//74
f 110//75 111//75 114//75 113//75
f 112//76 113//76 109//76 106//76
f 113//77 114//77 104//77 109//77
f 115//78 118//78 121//78 120//78
f 118//79 119//79 122//79 121//79
f 120//80 121//80 133//80 130//80
f 121//81 122//81 123//81 133//81
f 116//82 124//82 127//82 126//82
f 124//83 125//83 128//83 127//83
f 126//84 127//84 122//84 119//84
f 127//85 128//85 123//85 122//85
f 117//86 129//86 132//86 131//86
f 129//87 130//87 133//87 132//87
f 131//88 132//88 128//88 125//88
f 132//89 133//89 123//89 128//89
f 134//90 137//90 140//90 139//90
f 137//91 138//91 141//91 140//91
f 139//92 140//92 152//92 149//92
f 140//93 141//93 142//93 152//93
f 135//94 143//94 146//94 145//94
f 143//95 144//95 147//95 146//95
f 145//96 146//96 141//96 138//96
f 146//97 147//97 142//97 141//97
f 136//98 148//98 151//98 150//98
f 148//99 149//99 152//99 151//99
f 150//100 151//100 147//100 144//100
f 151//101 152//101 142//101 147//101
f 1//102 20//102 25//102 4//102
f 4//103 25//103 35//103 5//103
f 5//104 35//104 34//104 12//104
f 12//105 34//105 22//105 2//105
f 2//106 59//106 69//106 10//106
f 10//107 69//107 62//107 11//107
f 11//108 62//108 61//108 17//108
f 17//109 61//109 58//109 3//109
f 3//110 77//110 82//110 15//110
f 15//111 82//111 92//111 16//111
f 16//112 92//112 91//112 6//112
f 6//113 91//113 79//113 1//113
f 21//114 39//114 44//114 29//114
f 29//115 44//115 54//115 30//115
f 30//116 54//116 53//116 36//116
f 36//117 53//117 41//117 22//117
f 20//118 97//118 107//118 23//118
f 23//119 107//119 100//119 24//119
f 24//120 100//120 99//120 31//120
f 31//121 99//121 96//121 21//121
f 40//122 60//122 74//122 48//122
f 48//123 74//123 68//123 49//123
f 49//124 68//124 67//124 55//124
f 55//125 67//125 59//125 41//125
f 39//126 116//126 126//126 42//126
f 42//127 126//127 119//127 43//127
f 43//128 119//128 118//128 50//128
f 50//129 118//129 115//129 40//129
f 60//130 134//130 139//130 72//130
f 72//131 139//131 149//131 73//131
f 73//132 149//132 148//132 63//132
f 63//133 148//133 136//133 58//133
f 78//134 98//134 112//134 86//134
f 86//135 112//135 106//135 87//135
f 87//136 106//136 105//136 93//136
f 93//137 105//137 97//137 79//137
f 77//138 136//138 150//138 80//138
f 80//139 150//139 144//139 81//139
f 81//140 144//140 143//140 88//140
f 88//141 143//141 135//141 78//141
f 98//142 117//142 131//142 110//142
f 110//143 131//143 125//143 111//143
f 111//144 125//144 124//144 101//144
f 101//145 124//145 116//145 96//145
f 117//146 135//146 145//146 129//146
f 129//147 145//147 138//147 130//147
f 130//148 138//148 137//148 120//148
f 120//149 137//149 134//149 115//149
f 2//150 22//150 41//150 59//150
